<svg width="32" height="32" viewBox="0 0 32 32" version="1.1" xmlns="http://www.w3.org/2000/svg" xmlns:xlink="http://www.w3.org/1999/xlink">
<title>world</title>
<desc>Created using Figma</desc>
<g id="Canvas" transform="translate(4155 7907)">
<g id="world">
<g id="Oval 3">
<use xlink:href="#path0_fill" transform="translate(-4155 -7907)" fill="#444444"/>
</g>
<g id="ic_language_white_24px">
<g id="Shape">
<use xlink:href="#path1_fill" transform="translate(-4149 -7901)" fill="#FFFFFF"/>
</g>
</g>
</g>
</g>
<defs>
<path id="path0_fill" fill-rule="evenodd" d="M 16 32C 24.8366 32 32 24.8366 32 16C 32 7.16344 24.8366 0 16 0C 7.16344 0 0 7.16344 0 16C 0 24.8366 7.16344 32 16 32Z"/>
<path id="path1_fill" fill-rule="evenodd" d="M 0 10C 0 4.47998 4.46997 0 9.98999 0C 15.52 0 20 4.47998 20 10C 20 15.52 15.52 20 9.98999 20C 4.46997 20 0 15.52 0 10ZM 13.97 6L 16.9202 6C 15.9602 4.34998 14.4302 3.06995 12.5901 2.43994C 13.1902 3.54993 13.6501 4.75 13.97 6ZM 10 2.04004C 10.8301 3.23999 11.48 4.57007 11.9102 6L 8.09009 6C 8.52002 4.57007 9.17017 3.23999 10 2.04004ZM 2 10C 2 10.6899 2.1001 11.36 2.26001 12L 5.63989 12C 5.59399 11.6205 5.55469 11.2411 5.52954 10.8578C 5.51099 10.5745 5.5 10.2891 5.5 10C 5.5 9.58606 5.52222 9.17969 5.55762 8.77612C 5.58057 8.5166 5.60864 8.2583 5.63989 8L 2.26001 8C 2.1001 8.64001 2 9.31006 2 10ZM 3.08008 14L 6.03003 14C 6.3501 15.25 6.81006 16.45 7.41016 17.5601C 5.57007 16.9301 4.04004 15.66 3.08008 14ZM 3.08008 6L 6.03003 6C 6.3501 4.75 6.81006 3.54993 7.41016 2.43994C 5.57007 3.06995 4.04004 4.33997 3.08008 6ZM 10 17.96C 9.17017 16.76 8.52002 15.4301 8.09009 14L 11.9102 14C 11.48 15.4301 10.8301 16.76 10 17.96ZM 7.5 10C 7.5 10.3938 7.52344 10.7808 7.56055 11.165C 7.58765 11.4443 7.62207 11.7222 7.65991 12L 12.3401 12C 12.4299 11.34 12.5 10.6801 12.5 10C 12.5 9.54199 12.4683 9.0885 12.4202 8.64258C 12.4099 8.54883 12.3989 8.45532 12.3875 8.36218C 12.3726 8.24084 12.3567 8.12012 12.3401 8L 7.65991 8C 7.57007 8.65002 7.5 9.31995 7.5 10ZM 12.5901 17.5601C 13.1902 16.45 13.6501 15.25 13.97 14L 16.9202 14C 15.9602 15.65 14.4302 16.9301 12.5901 17.5601ZM 14.5 10C 14.5 10.6801 14.4402 11.34 14.3601 12L 17.74 12C 17.9001 11.36 18 10.6899 18 10C 18 9.31006 17.9001 8.64001 17.74 8L 14.3601 8C 14.4402 8.66003 14.5 9.31995 14.5 10Z"/>
</defs>
</svg>
