<svg width="32" height="32" viewBox="0 0 32 32" version="1.1" xmlns="http://www.w3.org/2000/svg" xmlns:xlink="http://www.w3.org/1999/xlink">
<use xlink:href="#path0_fill" fill="#1E2937"/>
<use xlink:href="#path1_fill" transform="translate(6 6)" fill="#FFFFFF"/>
<defs>
<path id="path0_fill" fill-rule="evenodd" d="M 16 32C 24.8366 32 32 24.8366 32 16C 32 7.16344 24.8366 0 16 0C 7.16344 0 0 7.16344 0 16C 0 24.8366 7.16344 32 16 32Z"/>
<path id="path1_fill" fill-rule="evenodd" d="M 0 10C 0 4.47998 4.46997 0 9.99023 0C 15.52 0 20 4.47998 20 10C 20 15.52 15.52 20 9.99023 20C 4.46997 20 0 15.52 0 10ZM 13.9697 6L 16.9199 6C 15.96 4.3501 14.4297 3.06982 12.5898 2.43994C 13.1899 3.5498 13.6499 4.75 13.9697 6ZM 10 2.04004C 10.8301 3.24023 11.48 4.56982 11.9097 6L 8.08984 6C 8.52002 4.56982 9.16992 3.24023 10 2.04004ZM 2 10C 2 10.6899 2.1001 11.3599 2.26001 12L 5.63989 12C 5.56006 11.3398 5.5 10.6802 5.5 10C 5.5 9.31982 5.56006 8.66016 5.63989 8L 2.26001 8C 2.19678 8.25342 2.14282 8.51172 2.10083 8.77393C 2.03662 9.17383 2 9.5835 2 10ZM 3.08008 14L 6.03003 14C 6.3501 15.25 6.81006 16.4502 7.41016 17.5601C 5.57007 16.9302 4.04004 15.6602 3.08008 14ZM 3.08008 6L 6.03003 6C 6.3501 4.75 6.81006 3.5498 7.41016 2.43994C 5.57007 3.06982 4.04004 4.33984 3.08008 6ZM 10 17.96C 9.16992 16.7598 8.52002 15.4302 8.08984 14L 11.9097 14C 11.48 15.4302 10.8301 16.7598 10 17.96ZM 7.5 10C 7.5 10.6802 7.57007 11.3398 7.65991 12L 12.3398 12C 12.4302 11.3398 12.5 10.6802 12.5 10C 12.5 9.31982 12.4302 8.6499 12.3398 8L 7.65991 8C 7.60303 8.41162 7.55396 8.83154 7.52563 9.25684C 7.50928 9.50293 7.5 9.75098 7.5 10ZM 12.5898 17.5601C 12.8398 17.0972 13.0659 16.6187 13.2676 16.1274C 13.4219 15.7515 13.5615 15.3682 13.687 14.9785C 13.791 14.6562 13.8853 14.3301 13.9697 14L 16.9199 14C 15.96 15.6499 14.4297 16.9302 12.5898 17.5601ZM 14.5 10C 14.5 10.6802 14.4399 11.3398 14.3599 12L 17.7397 12C 17.8999 11.3599 18 10.6899 18 10C 18 9.31006 17.8999 8.64014 17.7397 8L 14.3599 8C 14.4399 8.66016 14.5 9.31982 14.5 10Z"/>
</defs>
</svg>
